<svg width="24" height="24" viewBox="0 0 24 24" fill="none" xmlns="http://www.w3.org/2000/svg">
<path d="M21.4503 19.9539L21.3509 19.9646C21.3748 20.1876 21.3096 20.411 21.1695 20.5861C21.0305 20.7598 20.8291 20.872 20.6085 20.8989L20.5099 20.8989L20.5093 20.8989C20.2991 20.9002 20.096 20.8236 19.939 20.6839C19.7821 20.5442 19.6824 20.3513 19.6593 20.1424L19.6593 20.1423C19.448 18.2609 18.5509 16.5233 17.1394 15.2615C15.7279 13.9997 13.901 13.3022 12.0078 13.3022C10.1146 13.3022 8.28769 13.9997 6.87622 15.2615C5.46475 16.5233 4.56765 18.2609 4.35631 20.1423L4.35628 20.1425C4.33147 20.3681 4.21806 20.5746 4.041 20.7165C3.86395 20.8585 3.63775 20.9243 3.41217 20.8995C3.18659 20.8747 2.98011 20.7613 2.83814 20.5842C2.76785 20.4965 2.71551 20.3959 2.68412 20.288C2.65273 20.1801 2.64289 20.0671 2.65518 19.9554C2.84277 18.2647 3.48563 16.6567 4.51523 15.3026C5.54485 13.9486 6.92263 12.8993 8.50167 12.2667L8.66236 12.2023L8.52632 12.0952C7.61133 11.3754 6.94347 10.3882 6.61566 9.27107C6.28784 8.15395 6.31637 6.96242 6.69727 5.86227C7.07818 4.76211 7.79251 3.80804 8.74091 3.13277C9.6893 2.4575 10.8246 2.09463 11.9888 2.09463C13.153 2.09463 14.2883 2.4575 15.2367 3.13277C16.1851 3.80804 16.8994 4.76211 17.2803 5.86227C17.6612 6.96242 17.6898 8.15395 17.362 9.27107C17.0341 10.3882 16.3663 11.3754 15.4513 12.0952L15.3147 12.2027L15.4762 12.2668C17.0619 12.8961 18.4463 13.945 19.4812 15.3011C20.5161 16.6573 21.1625 18.2695 21.3509 19.965L21.4503 19.9539ZM21.4503 19.9539C21.2599 18.2404 20.6067 16.6111 19.5607 15.2405C18.5381 13.9004 17.1776 12.8571 15.6197 12.2169M21.4503 19.9539C21.477 20.2032 21.4042 20.4529 21.2476 20.6486C21.091 20.8443 20.8634 20.9702 20.6144 20.9989L15.6197 12.2169M15.6197 12.2169C15.6048 12.2288 15.5899 12.2406 15.575 12.2524L15.5131 12.1738L15.6197 12.2169ZM9.82219 10.9421C10.4635 11.3707 11.2175 11.5994 11.9888 11.5994C13.0231 11.5994 14.015 11.1885 14.7464 10.4571C15.4777 9.72579 15.8886 8.73386 15.8886 7.69956C15.8886 6.92825 15.6599 6.17427 15.2314 5.53295C14.8029 4.89163 14.1938 4.39178 13.4812 4.09661C12.7686 3.80144 11.9845 3.72421 11.228 3.87469C10.4715 4.02516 9.77662 4.39658 9.23122 4.94198C8.68582 5.48738 8.3144 6.18226 8.16393 6.93875C8.01345 7.69524 8.09068 8.47936 8.38585 9.19196C8.68102 9.90455 9.18087 10.5136 9.82219 10.9421Z" fill="#777777" stroke="white" stroke-width="0.2"/>
</svg>
