<svg width="24" height="24" viewBox="0 0 24 24" fill="none" xmlns="http://www.w3.org/2000/svg">
<path d="M4.1 10V9.9H4H3C2.76131 9.9 2.53239 9.80518 2.3636 9.6364C2.19482 9.46761 2.1 9.23869 2.1 9V6C2.1 5.23087 2.40553 4.49325 2.94939 3.94939C3.49325 3.40553 4.23087 3.1 5 3.1H19C19.7691 3.1 20.5068 3.40553 21.0506 3.94939C21.5945 4.49325 21.9 5.23087 21.9 6V9C21.9 9.23869 21.8052 9.46761 21.6364 9.6364C21.4676 9.80518 21.2387 9.9 21 9.9H20H19.9V10V18C19.9 18.7691 19.5945 19.5068 19.0506 20.0506C18.5068 20.5945 17.7691 20.9 17 20.9H7C6.23087 20.9 5.49325 20.5945 4.94939 20.0506C4.40553 19.5068 4.1 18.7691 4.1 18V10ZM6 9.9H5.9V10V18C5.9 18.2917 6.01589 18.5715 6.22218 18.7778C6.42847 18.9841 6.70826 19.1 7 19.1H17C17.2917 19.1 17.5715 18.9841 17.7778 18.7778C17.9841 18.5715 18.1 18.2917 18.1 18V10V9.9H18H6ZM20 8.1H20.1V8V6C20.1 5.70826 19.9841 5.42847 19.7778 5.22218C19.5715 5.01589 19.2917 4.9 19 4.9H5C4.70826 4.9 4.42847 5.01589 4.22218 5.22218C4.01589 5.42847 3.9 5.70826 3.9 6V8V8.1H4H20ZM14 13.9H10C9.76131 13.9 9.53239 13.8052 9.3636 13.6364C9.19482 13.4676 9.1 13.2387 9.1 13C9.1 12.7613 9.19482 12.5324 9.3636 12.3636C9.53239 12.1948 9.76131 12.1 10 12.1H14C14.2387 12.1 14.4676 12.1948 14.6364 12.3636C14.8052 12.5324 14.9 12.7613 14.9 13C14.9 13.2387 14.8052 13.4676 14.6364 13.6364C14.4676 13.8052 14.2387 13.9 14 13.9Z" fill="#777777" stroke="white" stroke-width="0.2"/>
</svg>
