<svg width="21" height="20" viewBox="0 0 21 20" fill="none" xmlns="http://www.w3.org/2000/svg">
<path d="M19.4404 2.81702L19.4405 2.81698L14.9505 0.25698L14.95 0.256711C14.8132 0.177719 14.658 0.136133 14.5 0.136133C14.342 0.136133 14.1868 0.177719 14.05 0.25671L14.0495 0.256987L10.0495 2.53699L10 2.56521L9.95048 2.53699L5.95048 0.256985L5.95 0.256711C5.81318 0.177719 5.65798 0.136133 5.5 0.136133C5.34202 0.136133 5.18682 0.177719 5.05 0.25671L5.04953 0.256981L0.55953 2.81698L0.559001 2.81728L0.559 2.81728C0.41998 2.89542 0.304221 3.0091 0.22357 3.14668C0.142934 3.28424 0.10029 3.44075 0.1 3.6002V8.72002C0.10029 8.87947 0.142934 9.03598 0.22357 9.17353C0.304221 9.31111 0.41998 9.42479 0.559 9.50294L0.559357 9.50314L4.55936 11.7731L4.61 11.8019V11.8601V16.3999C4.61027 16.5594 4.65292 16.716 4.73357 16.8535C4.81422 16.9911 4.92998 17.1048 5.069 17.1829L5.06945 17.1832L9.56945 19.7432L9.57 19.7435C9.70682 19.8225 9.86202 19.8641 10.02 19.8641C10.178 19.8641 10.3332 19.8225 10.47 19.7435L10.4704 19.7433L14.9504 17.1833L14.951 17.1829C15.09 17.1048 15.2058 16.9911 15.2864 16.8535C15.3671 16.716 15.4097 16.5595 15.41 16.4001C15.41 16.4 15.41 16.4 15.41 16.3999M19.4404 2.81702L15.51 16.4001L15.41 16.3999M19.4404 2.81702L19.443 2.81838C19.5854 2.89417 19.7048 3.00684 19.7887 3.14458C19.8725 3.28216 19.9178 3.43972 19.92 3.60079V8.71994M19.4404 2.81702L19.92 8.71994M15.41 16.3999L15.41 11.8601V11.8019L15.4606 11.7731L19.4606 9.50314L19.461 9.50293C19.6 9.42479 19.7158 9.31111 19.7964 9.17353C19.8771 9.03595 19.9197 8.87941 19.92 8.71994M15.41 16.3999L19.92 8.71994M1.9 8.14011V8.19814L1.95039 8.22693L5.45039 10.2269L5.5 10.2553L5.54961 10.2269L9.04961 8.22693L9.1 8.19814V8.14011V4.14011V4.08208L9.04961 4.05328L5.54961 2.05328L5.5 2.02493L5.45039 2.05328L1.95039 4.05328L1.9 4.08208V4.14011V8.14011ZM13.5496 15.9069L13.6 15.8781V15.8201V11.8201V11.7621L13.5496 11.7333L10.0496 9.73328L10 9.70493L9.95039 9.73328L6.45039 11.7333L6.4 11.7621V11.8201V15.8201V15.8781L6.45039 15.9069L9.95039 17.9069L10 17.9353L10.0496 17.9069L13.5496 15.9069ZM18.0496 8.22693L18.1 8.19814V8.14011V4.14011V4.08208L18.0496 4.05328L14.5496 2.05328L14.5 2.02493L14.4504 2.05328L10.9504 4.05328L10.9 4.08208V4.14011V8.14011V8.19814L10.9504 8.22693L14.4504 10.2269L14.5 10.2553L14.5496 10.2269L18.0496 8.22693Z" fill="white" stroke="#02D3AE" stroke-width="0.2"/>
</svg>
