<svg width="24" height="24" viewBox="0 0 24 24" fill="none" xmlns="http://www.w3.org/2000/svg">
<path d="M21.3101 8.64998L21.4101 8.65L21.316 8.68384C21.8051 10.044 21.9904 11.4948 21.859 12.9342C21.7275 14.3737 21.2825 15.7669 20.5551 17.016C19.8277 18.265 18.8356 19.3397 17.6485 20.1644C16.4614 20.9891 15.1081 21.5438 13.6838 21.7897C12.2594 22.0355 10.7984 21.9665 9.4036 21.5874C8.00876 21.2083 6.71384 20.5284 5.60984 19.5954C4.50583 18.6624 3.61952 17.499 3.01318 16.1869C2.40683 14.8747 2.09516 13.4458 2.10006 12.0003L2.10006 12.0002C2.10213 10.9115 2.28614 9.8309 2.64448 8.80292L2.64717 8.7952L2.64858 8.78715C2.66141 8.71344 2.6852 8.64206 2.71916 8.57539L2.71978 8.5757L2.72385 8.56469C3.42747 6.66236 4.69841 5.02205 6.36476 3.86565C8.0311 2.70926 10.0124 2.09259 12.0407 2.09907C14.069 2.10555 16.0463 2.73487 17.7052 3.90189C19.3594 5.06554 20.6173 6.7078 21.3101 8.60761V8.60789V8.60817V8.60844V8.60872V8.60899V8.60926V8.60954V8.60981V8.61007V8.61034V8.61061V8.61087V8.61114V8.6114V8.61166V8.61192V8.61218V8.61244V8.61269V8.61295V8.6132V8.61346V8.61371V8.61396V8.61421V8.61446V8.61471V8.61495V8.6152V8.61544V8.61568V8.61593V8.61617V8.61641V8.61664V8.61688V8.61712V8.61735V8.61759V8.61782V8.61805V8.61828V8.61851V8.61874V8.61896V8.61919V8.61942V8.61964V8.61986V8.62008V8.6203V8.62052V8.62074V8.62096V8.62118V8.62139V8.6216V8.62182V8.62203V8.62224V8.62245V8.62266V8.62287V8.62307V8.62328V8.62348V8.62369V8.62389V8.62409V8.62429V8.62449V8.62469V8.62489V8.62508V8.62528V8.62547V8.62566V8.62586V8.62605V8.62624V8.62643V8.62661V8.6268V8.62699V8.62717V8.62736V8.62754V8.62772V8.6279V8.62808V8.62826V8.62844V8.62862V8.62879V8.62897V8.62914V8.62932V8.62949V8.62966V8.62983V8.63V8.63017V8.63034V8.6305V8.63067V8.63083V8.631V8.63116V8.63132V8.63148V8.63164V8.6318V8.63196V8.63212V8.63227V8.63243V8.63258V8.63274V8.63289V8.63304V8.63319V8.63334V8.63349V8.63364V8.63379V8.63394V8.63408V8.63423V8.63437V8.63451V8.63465V8.6348V8.63494V8.63508V8.63521V8.63535V8.63549V8.63562V8.63576V8.63589V8.63603V8.63616V8.63629V8.63642V8.63655V8.63668V8.63681V8.63694V8.63707V8.63719V8.63732V8.63744V8.63756V8.63769V8.63781V8.63793V8.63805V8.63817V8.63829V8.63841V8.63852V8.63864V8.63876V8.63887V8.63898V8.6391V8.63921V8.63932V8.63943V8.63954V8.63965V8.63976V8.63987V8.63998V8.64008V8.64019V8.64029V8.6404V8.6405V8.6406V8.6407V8.6408V8.6409V8.641V8.6411V8.6412V8.6413V8.6414V8.64149V8.64159V8.64168V8.64178V8.64187V8.64196V8.64205V8.64214V8.64223V8.64232V8.64241V8.6425V8.64259V8.64267V8.64276V8.64285V8.64293V8.64302V8.6431V8.64318V8.64326V8.64335V8.64343V8.64351V8.64359V8.64366V8.64374V8.64382V8.6439V8.64397V8.64405V8.64412V8.6442V8.64427V8.64435V8.64442V8.64449V8.64456V8.64463V8.6447V8.64477V8.64484V8.64491V8.64498V8.64504V8.64511V8.64517V8.64524V8.6453V8.64537V8.64543V8.6455V8.64556V8.64562V8.64568V8.64574V8.6458V8.64586V8.64592V8.64598V8.64604V8.64609V8.64615V8.6462V8.64626V8.64632V8.64637V8.64642V8.64648V8.64653V8.64658V8.64663V8.64669V8.64674V8.64679V8.64684V8.64689V8.64693V8.64698V8.64703V8.64708V8.64712V8.64717V8.64722V8.64726V8.64731V8.64735V8.64739V8.64744V8.64748V8.64752V8.64756V8.6476V8.64765V8.64769V8.64773V8.64777V8.6478V8.64784V8.64788V8.64792V8.64796V8.64799V8.64803V8.64806V8.6481V8.64813V8.64817V8.6482V8.64824V8.64827V8.6483V8.64834V8.64837V8.6484V8.64843V8.64846V8.64849V8.64852V8.64855V8.64858V8.64861V8.64864V8.64867V8.64869V8.64872V8.64875V8.64877V8.6488V8.64883V8.64885V8.64888V8.6489V8.64892V8.64895V8.64897V8.649V8.64902V8.64904V8.64906V8.64908V8.64911V8.64913V8.64915V8.64917V8.64919V8.64921V8.64923V8.64925V8.64927V8.64928V8.6493V8.64932V8.64934V8.64935V8.64937V8.64939V8.64941V8.64942V8.64944V8.64945V8.64947V8.64948V8.6495V8.64953V8.64955V8.64958V8.6496V8.64963V8.64965V8.64967V8.6497V8.64972V8.64973V8.64975V8.64977V8.64979V8.6498V8.64982V8.64984V8.64986V8.64988V8.64989V8.64991V8.64993V8.64994V8.64996V8.64998ZM12.0002 3.9L12 3.9C10.5795 3.90146 9.18444 4.27642 7.95466 4.98727C6.72489 5.69812 5.70367 6.71986 4.99345 7.95L4.90685 8.1H5.08006H6.28006H6.32427L6.35403 8.06729C6.64148 7.75132 6.99518 7.50276 7.38986 7.33936C7.78453 7.17596 8.21042 7.10177 8.6371 7.12209C9.06378 7.14241 9.4807 7.25673 9.85806 7.45689C10.2354 7.65705 10.5639 7.93811 10.82 8.27996L10.8658 8.34099L10.9367 8.31304C11.2757 8.17949 11.6358 8.10736 12.0001 8.10002C12.3643 8.10736 12.7244 8.17949 13.0634 8.31304L13.1344 8.34099L13.1801 8.27996C13.4362 7.93811 13.7647 7.65705 14.1421 7.45689C14.5194 7.25673 14.9363 7.14241 15.363 7.12209C15.7897 7.10177 16.2156 7.17596 16.6103 7.33936C17.0049 7.50276 17.3586 7.75132 17.6461 8.06729L17.6758 8.1H17.7201H18.9201H19.0933L19.0067 7.95C18.2964 6.71986 17.2752 5.69812 16.0455 4.98727C14.8157 4.27642 13.4206 3.90146 12.0002 3.9ZM4.26006 9.9H4.18254L4.16322 9.97507C3.99294 10.6365 3.90456 11.3164 3.90006 11.9993V12C3.90006 14.1483 4.75345 16.2085 6.27249 17.7276C7.79154 19.2466 9.8518 20.1 12.0001 20.1C14.1483 20.1 16.2086 19.2466 17.7276 17.7276C19.2467 16.2085 20.1001 14.1483 20.1001 12L20.1001 11.9993C20.0956 11.3164 20.0072 10.6365 19.8369 9.97507L19.8176 9.9H19.7401H18.5001H18.397L18.4001 10.003C18.4232 10.7721 18.1398 11.5189 17.6122 12.0791C17.0847 12.6393 16.3562 12.967 15.5871 12.99C14.8179 13.0131 14.0711 12.7297 13.5109 12.2022C12.9508 11.6746 12.6231 10.9461 12.6 10.177L12.5983 10.1213L12.5501 10.0934C12.3828 9.99685 12.1931 9.94603 12.0001 9.94603C11.807 9.94603 11.6173 9.99685 11.4501 10.0934L11.4018 10.1213L11.4001 10.177C11.377 10.9461 11.0494 11.6746 10.4892 12.2022C9.929 12.7297 9.1822 13.0131 8.41306 12.99C7.64392 12.967 6.91545 12.6393 6.3879 12.0791C5.86035 11.5189 5.57694 10.7721 5.60001 10.003L5.6031 9.9H5.50006H4.26006ZM14.4228 14.3078L14.4228 14.3079L14.424 14.3069C14.6078 14.1541 14.8448 14.0806 15.0828 14.1026C15.2007 14.1134 15.3152 14.1474 15.4199 14.2025C15.5247 14.2577 15.6175 14.3329 15.6932 14.4239C15.8459 14.6077 15.9194 14.8447 15.8975 15.0827C15.8756 15.3208 15.76 15.5403 15.5761 15.6931L15.576 15.6932C14.5726 16.5308 13.3071 16.9896 12.0001 16.9896C10.693 16.9896 9.4275 16.5308 8.42414 15.6932L8.42398 15.6931C8.24016 15.5403 8.12456 15.3208 8.10261 15.0827C8.08067 14.8447 8.15418 14.6077 8.30696 14.4239C8.45975 14.2401 8.6793 14.1245 8.91732 14.1026C9.15533 14.0806 9.39232 14.1541 9.57614 14.3069L9.57729 14.3078C10.2636 14.8611 11.1185 15.1629 12.0001 15.1629C12.8816 15.1629 13.7366 14.8611 14.4228 14.3078ZM16.4147 10.6111C16.5355 10.4302 16.6001 10.2176 16.6001 10C16.6001 9.70826 16.4842 9.42847 16.2779 9.22218C16.0716 9.01589 15.7918 8.9 15.5001 8.9C15.2825 8.9 15.0698 8.96451 14.8889 9.08538C14.708 9.20625 14.567 9.37805 14.4838 9.57905C14.4005 9.78005 14.3787 10.0012 14.4212 10.2146C14.4636 10.428 14.5684 10.624 14.7222 10.7778C14.8761 10.9317 15.0721 11.0364 15.2855 11.0789C15.4988 11.1213 15.72 11.0995 15.921 11.0163C16.122 10.933 16.2938 10.792 16.4147 10.6111ZM9.41467 10.6111C9.53554 10.4302 9.60006 10.2176 9.60006 10C9.60006 9.70826 9.48416 9.42847 9.27787 9.22218C9.07159 9.01589 8.7918 8.9 8.50006 8.9C8.2825 8.9 8.06982 8.96451 7.88893 9.08538C7.70804 9.20625 7.56705 9.37805 7.48379 9.57905C7.40053 9.78005 7.37875 10.0012 7.42119 10.2146C7.46364 10.428 7.5684 10.624 7.72224 10.7778C7.87608 10.9317 8.07208 11.0364 8.28546 11.0789C8.49884 11.1213 8.72001 11.0995 8.92101 11.0163C9.12201 10.933 9.2938 10.792 9.41467 10.6111Z" fill="#777777" stroke="white" stroke-width="0.2"/>
</svg>
