<svg width="24" height="24" viewBox="0 0 24 24" fill="none" xmlns="http://www.w3.org/2000/svg">
<path d="M15.9 6.5V6.6H16H19C19.7691 6.6 20.5068 6.90553 21.0506 7.44939C21.5945 7.99325 21.9 8.73087 21.9 9.5V18.5C21.9 19.2691 21.5945 20.0068 21.0506 20.5506C20.5068 21.0945 19.7691 21.4 19 21.4H5C4.23087 21.4 3.49325 21.0945 2.94939 20.5506C2.40553 20.0068 2.1 19.2691 2.1 18.5V9.5C2.1 8.73087 2.40553 7.99325 2.94939 7.44939C3.49325 6.90553 4.23087 6.6 5 6.6H8H8.1V6.5V5.5C8.1 4.73087 8.40553 3.99325 8.94939 3.44939C9.49325 2.90553 10.2309 2.6 11 2.6H13C13.7691 2.6 14.5068 2.90553 15.0506 3.44939C15.5945 3.99325 15.9 4.73087 15.9 5.5V6.5ZM14 6.6H14.1V6.5V5.5C14.1 5.20826 13.9841 4.92847 13.7778 4.72218C13.5715 4.51589 13.2917 4.4 13 4.4H11C10.7083 4.4 10.4285 4.51589 10.2222 4.72218C10.0159 4.92847 9.9 5.20826 9.9 5.5V6.5V6.6H10H14ZM4 13.35H3.9V13.45V18.5C3.9 18.7917 4.01589 19.0715 4.22218 19.2778C4.42847 19.4841 4.70826 19.6 5 19.6H19C19.2917 19.6 19.5715 19.4841 19.7778 19.2778C19.9841 19.0715 20.1 18.7917 20.1 18.5V13.45V13.35H20H17H16.9V13.45V14.5C16.9 14.7387 16.8052 14.9676 16.6364 15.1364C16.4676 15.3052 16.2387 15.4 16 15.4C15.7613 15.4 15.5324 15.3052 15.3636 15.1364C15.1948 14.9676 15.1 14.7387 15.1 14.5V13.45V13.35H15H9H8.9V13.45V14.5C8.9 14.7387 8.80518 14.9676 8.6364 15.1364C8.46761 15.3052 8.23869 15.4 8 15.4C7.76131 15.4 7.53239 15.3052 7.3636 15.1364C7.19482 14.9676 7.1 14.7387 7.1 14.5V13.45V13.35H7H4ZM20 11.6H20.1V11.5V9.5C20.1 9.20826 19.9841 8.92847 19.7778 8.72218C19.5715 8.51589 19.2917 8.4 19 8.4H5C4.70826 8.4 4.42847 8.51589 4.22218 8.72218C4.01589 8.92847 3.9 9.20826 3.9 9.5V11.5V11.6H4H20Z" fill="#02D3AE" stroke="white" stroke-width="0.2"/>
</svg>
